<svg id="Group_2022" data-name="Group 2022" xmlns="http://www.w3.org/2000/svg" width="24.044" height="24.044">
        <defs>
                <style>
                        .cls-11,.cls-4,.cls-7{fill:none}.cls-4{stroke:#47476b}.cls-7{stroke-miterlimit:10}.cls-4{stroke-linecap:round;stroke-linejoin:round;stroke-width:.927px}.cls-8{fill:#e25454}.cls-7{stroke:#e25454}.cls-6{fill:#47476b}.cls-7{stroke-width:.551px}.cls-9{fill:#fff}.cls-10{stroke:none}
                </style>
        </defs>
        <circle id="Ellipse_71" data-name="Ellipse 71" cx="12.022" cy="12.022" r="12.022" style="fill:#efb650"/>
        <circle id="Ellipse_72" data-name="Ellipse 72" cx="10.538" cy="10.538" r="10.538" transform="translate(1.484 .609)" style="fill:#fc6"/>
        <path id="Path_241" data-name="Path 241" class="cls-4" d="M350.838 42.494h0a2.543 2.543 0 0 0-3.788-1.014h0" transform="translate(-338.773 -40.401)"/>
        <path id="Path_242" data-name="Path 242" class="cls-4" d="M353.5 44.744h0a2.545 2.545 0 0 1 3.789 1.016h0" transform="translate(-337.036 -39.521)"/>
        <path id="Path_243" data-name="Path 243" class="cls-4" d="M347.167 52.545a5.217 5.217 0 0 0 7.378 0" transform="translate(-338.741 -37.292)"/>
        <g id="Group_271" data-name="Group 271" transform="translate(2.219 2.968)">
                <path id="Rectangle_130" data-name="Rectangle 130" transform="rotate(14.98 -4.661 37.639)" style="stroke-width:.435px;stroke:#e25454;fill:#e25454;stroke-miterlimit:10" d="M0 0h3.818v1.29H0z"/>
                <path id="Rectangle_131" data-name="Rectangle 131" class="cls-6" d="M1.691 0h5.971a1.691 1.691 0 0 1 1.691 1.691v1.571A4.139 4.139 0 0 1 5.214 7.4H2.7A2.7 2.7 0 0 1 0 4.7V1.691A1.691 1.691 0 0 1 1.691 0z" transform="rotate(14.98 .318 7.63)"/>
                <path id="Rectangle_132" data-name="Rectangle 132" class="cls-6" d="M2.592 0H5a3.97 3.97 0 0 1 3.97 3.97v1.507A1.622 1.622 0 0 1 7.35 7.1H1.622A1.622 1.622 0 0 1 0 5.477V2.592A2.592 2.592 0 0 1 2.592 0z" transform="rotate(-165.02 10.283 4.866)"/>
                <g id="Rectangle_133" data-name="Rectangle 133" class="cls-7">
                        <path class="cls-10" d="M1.713 0h6.05a1.713 1.713 0 0 1 1.712 1.713V3.3a4.193 4.193 0 0 1-4.193 4.2H2.738A2.738 2.738 0 0 1 0 4.759V1.713A1.713 1.713 0 0 1 1.713 0z" transform="rotate(14.98 .534 7.42)"/>
                        <path class="cls-11" d="M1.713.276h6.05A1.437 1.437 0 0 1 9.2 1.713V3.3a3.917 3.917 0 0 1-3.918 3.922H2.738A2.462 2.462 0 0 1 .276 4.759V1.713A1.437 1.437 0 0 1 1.713.276z" transform="rotate(14.98 .534 7.42)"/>
                </g>
                <g id="Rectangle_134" data-name="Rectangle 134" class="cls-7">
                        <path class="cls-10" d="M2.738 0h2.544a4.193 4.193 0 0 1 4.193 4.193v1.592A1.713 1.713 0 0 1 7.762 7.5H1.713A1.713 1.713 0 0 1 0 5.784V2.738A2.738 2.738 0 0 1 2.738 0z" transform="rotate(-165.02 10.396 4.982)"/>
                        <path class="cls-11" d="M2.738.276h2.544A3.917 3.917 0 0 1 9.2 4.193v1.592a1.437 1.437 0 0 1-1.438 1.437H1.713A1.437 1.437 0 0 1 .276 5.784V2.738A2.463 2.463 0 0 1 2.738.276z" transform="rotate(-165.02 10.396 4.982)"/>
                </g>
                <g id="Group_269" data-name="Group 269" transform="translate(1.051)">
                        <path id="Path_244" data-name="Path 244" class="cls-8" d="m346.037 43.533-2.446-.655a.287.287 0 0 0-.353.2l-.107.4a.752.752 0 0 0 .531.92z" transform="translate(-343.106 -42.868)"/>
                </g>
                <g id="Group_270" data-name="Group 270" transform="translate(19.045 4.701)">
                        <path id="Path_245" data-name="Path 245" class="cls-8" d="m357.28 46.571 2.446.656a.289.289 0 0 1 .2.353l-.107.4a.751.751 0 0 1-.92.531z" transform="translate(-357.28 -46.571)"/>
                </g>
                <path id="Path_246" data-name="Path 246" class="cls-9" d="M349.792 46.5a.928.928 0 1 1-.656-1.136.928.928 0 0 1 .656 1.136z" transform="translate(-340.745 -42.204)"/>
                <path id="Path_247" data-name="Path 247" class="cls-9" d="M348.12 47.127a.418.418 0 1 1-.295-.512.417.417 0 0 1 .295.512z" transform="translate(-340.925 -41.862)"/>
                <path id="Path_248" data-name="Path 248" class="cls-9" d="M357.878 48.668a.929.929 0 1 1-.656-1.137.929.929 0 0 1 .656 1.137z" transform="translate(-338.566 -41.62)"/>
                <path id="Path_249" data-name="Path 249" class="cls-9" d="M356.206 49.293a.418.418 0 1 1-.3-.512.418.418 0 0 1 .3.512z" transform="translate(-338.746 -41.278)"/>
        </g>
</svg>