<svg xmlns="http://www.w3.org/2000/svg" xmlns:xlink="http://www.w3.org/1999/xlink" width="129.572" height="12.648" viewBox="0 0 129.572 12.648">
  <defs>
    <linearGradient id="linear-gradient" y1="0.5" x2="1" y2="0.5" gradientUnits="objectBoundingBox">
      <stop offset="0" stop-color="#21cbcb"/>
      <stop offset="1" stop-color="#60ff38"/>
    </linearGradient>
  </defs>
  <g id="Group_1789" data-name="Group 1789" transform="translate(159.056 -370.401)">
    <path id="Path_1846" data-name="Path 1846" d="M-146.742,371.289l.015,11.7a.3.3,0,0,1-.3.3h-1.386a.3.3,0,0,1-.3-.3l-.013-6.7a.3.3,0,0,0-.557-.142l-3.063,5.581a.3.3,0,0,1-.26.154h-.583a.3.3,0,0,1-.259-.152l-3.061-5.49a.3.3,0,0,0-.556.145v6.607a.3.3,0,0,1-.3.3h-1.4a.3.3,0,0,1-.3-.3v-11.7a.3.3,0,0,1,.3-.3h1.25a.3.3,0,0,1,.26.154l4.128,7.519a.3.3,0,0,0,.521,0l4.051-7.515a.3.3,0,0,1,.261-.156h1.249A.3.3,0,0,1-146.742,371.289Zm10.184-.144-2.987,5.37a.3.3,0,0,1-.519,0l-2.957-5.368a.3.3,0,0,0-.26-.154h-1.558a.3.3,0,0,0-.259.441l4.145,7.486a.3.3,0,0,1,.037.144v3.93a.3.3,0,0,0,.3.3h1.5a.3.3,0,0,0,.3-.3v-3.965a.294.294,0,0,1,.037-.144l4.129-7.45a.3.3,0,0,0-.259-.441H-136.3A.3.3,0,0,0-136.558,371.145Z" transform="translate(0 -0.416)" fill="url(#linear-gradient)"/>
    <path id="Path_1847" data-name="Path 1847" d="M-70.245,376.725a6,6,0,0,1,6.036-6.324,5.526,5.526,0,0,1,4.288,1.849.3.3,0,0,1-.016.4l-.948.973a.3.3,0,0,1-.427-.008,3.761,3.761,0,0,0-2.8-1.21,4.028,4.028,0,0,0-4.024,4.321,4.028,4.028,0,0,0,4.024,4.322,3.726,3.726,0,0,0,2.8-1.223.3.3,0,0,1,.428-.008l.949.987a.3.3,0,0,1,.015.4,5.537,5.537,0,0,1-4.306,1.85A6,6,0,0,1-70.245,376.725Z" transform="translate(-62.445)" fill="#fff"/>
    <path id="Path_1848" data-name="Path 1848" d="M-29.091,376.725a6.026,6.026,0,0,1,6.068-6.324,6.016,6.016,0,0,1,6.068,6.324,6.016,6.016,0,0,1-6.068,6.324A6.026,6.026,0,0,1-29.091,376.725Zm10.028,0a4.026,4.026,0,0,0-3.96-4.321,4.025,4.025,0,0,0-3.959,4.321,4.025,4.025,0,0,0,3.959,4.322A4.026,4.026,0,0,0-19.063,376.725Z" transform="translate(-91.381)" fill="#fff"/>
    <path id="Path_1849" data-name="Path 1849" d="M27.309,371.289v11.7a.3.3,0,0,1-.3.3h-.979a.3.3,0,0,1-.238-.119l-5.589-7.49a.3.3,0,0,0-.535.178v7.135a.3.3,0,0,1-.3.3H17.891a.3.3,0,0,1-.3-.3v-11.7a.3.3,0,0,1,.3-.3h1.276a.3.3,0,0,1,.238.119l5.589,7.491a.3.3,0,0,0,.535-.178v-7.136a.3.3,0,0,1,.3-.3h1.185A.3.3,0,0,1,27.309,371.289Z" transform="translate(-124.207 -0.416)" fill="#fff"/>
    <path id="Path_1850" data-name="Path 1850" d="M55.924,371.289v11.7a.3.3,0,0,1-.3.3H54.351a.3.3,0,0,1-.238-.119l-5.59-7.49a.3.3,0,0,0-.535.178v7.135a.3.3,0,0,1-.3.3H46.8a.3.3,0,0,1-.3-.3v-11.7a.3.3,0,0,1,.3-.3h.683a.3.3,0,0,1,.238.119l5.589,7.491a.3.3,0,0,0,.535-.178v-7.136a.3.3,0,0,1,.3-.3h1.482A.3.3,0,0,1,55.924,371.289Z" transform="translate(-144.535 -0.416)" fill="#fff"/>
    <path id="Path_1851" data-name="Path 1851" d="M93.954,381.672v1.321a.3.3,0,0,1-.3.3H85.5v-12.3h7.928a.3.3,0,0,1,.3.3v1.322a.3.3,0,0,1-.3.3H87.6v3.2H92.74a.3.3,0,0,1,.3.3v1.286a.3.3,0,0,1-.3.3H87.6v3.39h6.061A.3.3,0,0,1,93.954,381.672Z" transform="translate(-171.956 -0.416)" fill="#fff"/>
    <path id="Path_1852" data-name="Path 1852" d="M119.773,376.725a6,6,0,0,1,6.036-6.324,5.526,5.526,0,0,1,4.288,1.849.3.3,0,0,1-.016.4l-.948.973a.3.3,0,0,1-.427-.008,3.761,3.761,0,0,0-2.8-1.21,4.333,4.333,0,0,0,0,8.643,3.727,3.727,0,0,0,2.8-1.223.294.294,0,0,1,.427-.008l.95.987a.3.3,0,0,1,.015.4,5.537,5.537,0,0,1-4.306,1.85A6,6,0,0,1,119.773,376.725Z" transform="translate(-196.051)" fill="#fff"/>
    <path id="Path_1853" data-name="Path 1853" d="M164.365,372.925h-3.141a.3.3,0,0,1-.3-.3v-1.339a.3.3,0,0,1,.3-.3h8.967a.3.3,0,0,1,.3.3v1.339a.3.3,0,0,1-.3.3h-3.141a.3.3,0,0,0-.3.3v9.771a.3.3,0,0,1-.3.3h-1.5a.3.3,0,0,1-.3-.3v-9.771A.3.3,0,0,0,164.365,372.925Z" transform="translate(-224.987 -0.416)" fill="#fff"/>
    <path id="Path_1854" data-name="Path 1854" d="M198.937,376.725a6.074,6.074,0,1,1,6.068,6.324A6.026,6.026,0,0,1,198.937,376.725Zm10.028,0a3.975,3.975,0,1,0-3.96,4.322A4.026,4.026,0,0,0,208.965,376.725Z" transform="translate(-251.713)" fill="#fff"/>
    <path id="Path_1855" data-name="Path 1855" d="M252.906,383.152l-2.118-3.314a.293.293,0,0,0-.26-.137c-.09,0-.18,0-.271,0h-2.246a.3.3,0,0,0-.3.3v2.99a.3.3,0,0,1-.3.3h-1.5a.3.3,0,0,1-.3-.3v-12h4.636c2.962,0,4.8,1.652,4.8,4.374a3.941,3.941,0,0,1-2.4,3.883l2.3,3.583a.3.3,0,0,1-.25.457h-1.548A.3.3,0,0,1,252.906,383.152Zm-2.746-10.228h-2.15a.3.3,0,0,0-.3.3v4.308a.3.3,0,0,0,.3.3h2.15c1.835,0,2.785-.914,2.785-2.46S252,372.925,250.161,372.925Z" transform="translate(-284.538 -0.416)" fill="#fff"/>
  </g>
</svg>
